<?xml version="1.0" encoding="UTF-8"?>
<svg version="1.1" xmlns="http://www.w3.org/2000/svg" width="1024" height="1024">
<path d="M0 0 C337.92 0 675.84 0 1024 0 C1024 337.92 1024 675.84 1024 1024 C686.08 1024 348.16 1024 0 1024 C0 686.08 0 348.16 0 0 Z " fill="#141A27" transform="translate(0,0)"/>
<path d="M0 0 C12.21 0 24.42 0 37 0 C37.33 41.25 37.66 82.5 38 125 C61.13502438 115.74599025 82.45687284 105.58995899 102 90 C102.96679688 89.236875 103.93359375 88.47375 104.9296875 87.6875 C109.68033988 83.87667858 114.17793253 79.98818156 118.3984375 75.59765625 C119.98060172 74.01935096 121.63216462 72.64665575 123.375 71.25 C128.28020793 67.12391906 132.03956036 62.00555566 136 57 C136.66 56.2059375 137.32 55.411875 138 54.59375 C151.65253402 38.07858788 160.68052435 20.12855804 168 0 C181.53 0 195.06 0 209 0 C207.16271067 6.12429775 205.45300316 11.79549558 202.875 17.5625 C202.42386841 18.57485718 202.42386841 18.57485718 201.96362305 19.60766602 C192.96518189 39.47474076 181.38693083 56.64288438 167 73 C166.37609375 73.73476563 165.7521875 74.46953125 165.109375 75.2265625 C158.02690455 83.53357224 150.29520263 91.00185201 141.75390625 97.796875 C139.98498761 99.21200991 138.24002543 100.65792428 136.52734375 102.140625 C123.25323903 113.54773817 106.70400422 124.43199859 90 130 C89.67 131.65 89.34 133.3 89 135 C89.99 134.91298828 89.99 134.91298828 91 134.82421875 C115.82365037 133.6929326 140.85428403 142.79111912 159.1875 159.3125 C181.04319327 179.76583887 191.84774679 207.03921598 201.76855469 234.59960938 C202.96451033 237.90200236 204.18458367 241.19433404 205.4140625 244.484375 C206.15107116 246.46873905 206.88805182 248.45311349 207.625 250.4375 C207.96789062 251.34846436 208.31078125 252.25942871 208.6640625 253.19799805 C208.9734375 254.03886963 209.2828125 254.87974121 209.6015625 255.74609375 C210.00882568 256.83942017 210.00882568 256.83942017 210.42431641 257.95483398 C211 260 211 260 211 264 C197.47 264 183.94 264 170 264 C168.515 258.9675 167.03 253.935 165.5 248.75 C161.63608378 235.88520923 157.52925433 223.26409143 152 211 C151.70528809 210.34563965 151.41057617 209.6912793 151.10693359 209.01708984 C140.77523461 186.48305 126.54493599 170.88598275 103.75 161.125 C81.68983119 154.18013204 60.21750968 155.56628072 37 155 C37 190.97 37 226.94 37 264 C24.79 264 12.58 264 0 264 C0 176.88 0 89.76 0 0 Z " fill="#FCFDFD" transform="translate(415,379)"/>
<path d="M0 0 C0.66 0.33 1.32 0.66 2 1 C-0.05233685 3.2477975 -1.00667261 4.0022242 -4 5 C-4.33 6.65 -4.66 8.3 -5 10 C-6.98 10 -8.96 10 -11 10 C-11 8.35 -11 6.7 -11 5 C-9.21289414 4.13633178 -7.4201535 3.28431406 -5.625 2.4375 C-4.62726563 1.96183594 -3.62953125 1.48617188 -2.6015625 0.99609375 C-1.74304688 0.66738281 -0.88453125 0.33867187 0 0 Z " fill="#262934" transform="translate(515,504)"/>
<path d="M0 0 C0.66 1.32 1.32 2.64 2 4 C1.00795408 5.33926199 0.00573778 6.67098936 -1 8 C-1.639375 8.886875 -2.27875 9.77375 -2.9375 10.6875 C-5.044588 13.04999261 -5.92189622 13.67020317 -9 14 C-9 9.82438593 -7.16647522 8.46042213 -4.5 5.3125 C-3.6646875 4.31863281 -2.829375 3.32476562 -1.96875 2.30078125 C-0.99421875 1.16189453 -0.99421875 1.16189453 0 0 Z " fill="#191F29" transform="translate(586,446)"/>
<path d="M0 0 C1.32 1.65 2.64 3.3 4 5 C2.35 8.3 0.7 11.6 -1 15 C-2.32 14.01 -3.64 13.02 -5 12 C-4.360625 11.690625 -3.72125 11.38125 -3.0625 11.0625 C0.09768575 7.90231425 -0.18099207 4.31666092 0 0 Z " fill="#252A35" transform="translate(570,397)"/>
<path d="M0 0 C0.66 0.99 1.32 1.98 2 3 C0.4375 4.20442708 -1.125 5.40885417 -2.6875 6.61328125 C-4.34370205 8.04491137 -4.34370205 8.04491137 -4 11 C-4.99 11.33 -5.98 11.66 -7 12 C-7.66 11.67 -8.32 11.34 -9 11 C-9 11.66 -9 12.32 -9 13 C-9.99 12.67 -10.98 12.34 -12 12 C-8 8 -4 4 0 0 Z " fill="#1F252F" transform="translate(575,459)"/>
<path d="M0 0 C2 1 2 1 3 2 C3.33 2.99 3.66 3.98 4 5 C3.67 5.33 3.34 5.66 3 6 C3 6.99 3 7.98 3 9 C2.01 9.33 1.02 9.66 0 10 C-0.99 9.34 -1.98 8.68 -3 8 C-2.01 5.36 -1.02 2.72 0 0 Z " fill="#252D38" transform="translate(620,389)"/>
<path d="M0 0 C1.32 0.66 2.64 1.32 4 2 C4 3.32 4 4.64 4 6 C3.01 6.495 3.01 6.495 2 7 C0.68 5.68 -0.64 4.36 -2 3 C-1.34 2.01 -0.68 1.02 0 0 Z " fill="#1C2230" transform="translate(570,530)"/>
<path d="M0 0 C0.99 0.33 1.98 0.66 3 1 C0.6875 3.0625 0.6875 3.0625 -2 5 C-2.99 4.67 -3.98 4.34 -5 4 C-5.66 4.66 -6.32 5.32 -7 6 C-6.6875 4.125 -6.6875 4.125 -6 2 C-3 0 -3 0 0 0 Z " fill="#1A1F2D" transform="translate(545,440)"/>
<path d="M0 0 C0.99 0.33 1.98 0.66 3 1 C1.7391988 2.03319813 0.46596742 3.05124379 -0.8125 4.0625 C-1.87404297 4.91521484 -1.87404297 4.91521484 -2.95703125 5.78515625 C-3.63121094 6.18605469 -4.30539062 6.58695312 -5 7 C-5.99 6.67 -6.98 6.34 -8 6 C-7.67 5.34 -7.34 4.68 -7 4 C-4.4375 3.375 -4.4375 3.375 -2 3 C-2 2.34 -2 1.68 -2 1 C-1.34 0.67 -0.68 0.34 0 0 Z " fill="#242832" transform="translate(507,474)"/>
<path d="M0 0 C0.99 0.33 1.98 0.66 3 1 C2.01 2.98 1.02 4.96 0 7 C-0.99 6.34 -1.98 5.68 -3 5 C-2.625 3.0625 -2.625 3.0625 -2 1 C-1.34 0.67 -0.68 0.34 0 0 Z " fill="#232B34" transform="translate(565,412)"/>
<path d="M0 0 C0.66 0.33 1.32 0.66 2 1 C-0.13464912 3.45484649 -1.70720291 4.68134222 -5 5 C-5.66 4.34 -6.32 3.68 -7 3 C-4.69631264 1.93347808 -2.35981813 0.93578995 0 0 Z M-6 5 C-5.67 5 -5.34 5 -5 5 C-5 6.65 -5 8.3 -5 10 C-5.33 10 -5.66 10 -6 10 C-6 8.35 -6 6.7 -6 5 Z " fill="#1E242E" transform="translate(515,504)"/>
<path d="M0 0 C-2.6855594 2.6855594 -5.37621328 3.06049974 -9 4 C-9 2.68 -9 1.36 -9 0 C-5.67465243 -1.10844919 -3.37817425 -0.84454356 0 0 Z " fill="#222A34" transform="translate(466,499)"/>
<path d="M0 0 C1.32 1.65 2.64 3.3 4 5 C3.01 6.485 3.01 6.485 2 8 C1.01 7.67 0.02 7.34 -1 7 C-0.67 4.69 -0.34 2.38 0 0 Z " fill="#1C2331" transform="translate(570,397)"/>
<path d="M0 0 C0.66 0.66 1.32 1.32 2 2 C1.34 2.66 0.68 3.32 0 4 C-0.99 5.485 -0.99 5.485 -2 7 C-2.99 6.67 -3.98 6.34 -5 6 C-3.86695008 2.60085025 -2.87481525 1.94745549 0 0 Z " fill="#F1F1F5" transform="translate(527,461)"/>
<path d="M0 0 C0.66 1.32 1.32 2.64 2 4 C0.1875 5.5625 0.1875 5.5625 -2 7 C-2.99 6.67 -3.98 6.34 -5 6 C-3.35 4.02 -1.7 2.04 0 0 Z " fill="#2B303B" transform="translate(586,446)"/>
<path d="M0 0 C1.98 0 3.96 0 6 0 C4.68 1.65 3.36 3.3 2 5 C1.34 4.67 0.68 4.34 0 4 C0 2.68 0 1.36 0 0 Z " fill="#12141E" transform="translate(587,643)"/>
<path d="M0 0 C0.99 0 1.98 0 3 0 C1.70700306 2.88437779 0.34058637 4.87219421 -2 7 C-2 3.89448334 -1.4606285 2.64738916 0 0 Z " fill="#232833" transform="translate(555,427)"/>
<path d="M0 0 C1.32 0.66 2.64 1.32 4 2 C3.01 2.33 2.02 2.66 1 3 C0.67 3.99 0.34 4.98 0 6 C-0.99 5.34 -1.98 4.68 -3 4 C-3 3.34 -3 2.68 -3 2 C-2.01 2 -1.02 2 0 2 C0 1.34 0 0.68 0 0 Z " fill="#0C101A" transform="translate(452,641)"/>
<path d="M0 0 C0.99 1.32 1.98 2.64 3 4 C2.34 5.32 1.68 6.64 1 8 C0.01 5.69 -0.98 3.38 -2 1 C-1.34 0.67 -0.68 0.34 0 0 Z " fill="#1B202B" transform="translate(601,571)"/>
<path d="M0 0 C2.31 0.33 4.62 0.66 7 1 C6.34 2.65 5.68 4.3 5 6 C3.31237149 4.3545622 1.6459651 2.68711423 0 1 C0 0.67 0 0.34 0 0 Z " fill="#222532" transform="translate(580,544)"/>
<path d="M0 0 C-0.375 1.9375 -0.375 1.9375 -1 4 C-1.99 4.495 -1.99 4.495 -3 5 C-5.125 4.0625 -5.125 4.0625 -7 3 C-2.25 0 -2.25 0 0 0 Z " fill="#252A36" transform="translate(539,491)"/>
<path d="M0 0 C0.99 0.33 1.98 0.66 3 1 C-0.465 3.97 -0.465 3.97 -4 7 C-3.04065919 3.16263678 -2.76390737 2.40339772 0 0 Z " fill="#3E424E" transform="translate(540,446)"/>
<path d="M0 0 C0.66 0 1.32 0 2 0 C2.33 1.65 2.66 3.3 3 5 C1.02 5.33 -0.96 5.66 -3 6 C-2.01 4.02 -1.02 2.04 0 0 Z " fill="#242934" transform="translate(601,426)"/>
</svg>
